<svg height="30" viewBox="0 0 30 30" width="30" xmlns="http://www.w3.org/2000/svg"><g fill="#494c4e"><circle cx="21" cy="29" r="1"/><path d="m9.5 7h-2a.5.5 0 0 1 0-1h2a.5.5 0 0 1 0 1z"/><path d="m20 8.5a.5.5 0 0 1 -.5.5h-12a.5.5 0 0 1 0-1h12a.5.5 0 0 1 .5.5z"/><path d="m9.5 12h-2a.5.5 0 0 1 0-1h2a.5.5 0 0 1 0 1z"/><path d="m9.5 17h-2a.5.5 0 0 1 0-1h2a.5.5 0 0 1 0 1z"/><path d="m9.5 22h-2a.5.5 0 0 1 0-1h2a.5.5 0 0 1 0 1z"/><path d="m13.5 14h-6a.5.5 0 0 1 0-1h6a.5.5 0 0 1 0 1z"/><path d="m13.5 19h-6a.5.5 0 0 1 0-1h6a.5.5 0 0 1 0 1z"/><path d="m13.5 24h-6a.5.5 0 0 1 0-1h6a.5.5 0 0 1 0 1z"/><path d="m27 16.5a5.5 5.5 0 0 1 -5 5.47v3.03a1 1 0 0 1 -2 0v-4a1 1 0 0 1 1-1h.52a3.5 3.5 0 1 0 -3.52-3.5v.5a1 1 0 0 1 -2 0v-.5a5.5 5.5 0 0 1 11 0z"/><path d="m25 4v4a1 1 0 0 1 -2 0v-4a2.006 2.006 0 0 0 -2-2h-14a2.006 2.006 0 0 0 -2 2v22a2.006 2.006 0 0 0 2 2h10a1 1 0 0 1 0 2h-10a4.012 4.012 0 0 1 -4-4v-22a4.012 4.012 0 0 1 4-4h14a4.012 4.012 0 0 1 4 4z"/></g></svg>